<?xml version="1.0" encoding="utf-8"?>
<!-- Generator: Adobe Illustrator 24.3.0, SVG Export Plug-In . SVG Version: 6.00 Build 0)  -->
<svg version="1.1" id="Layer_2" xmlns="http://www.w3.org/2000/svg" xmlns:xlink="http://www.w3.org/1999/xlink" x="0px" y="0px"
	 viewBox="0 0 64 64" enable-background="new 0 0 64 64" xml:space="preserve">
<path fill="#22C0FF" d="M53,20h-6H14h-3c-1.1,0-2,0.9-2,2v36c0,1.1,0.9,2,2,2h42c1.1,0,2-0.9,2-2V46H41c-2.2,0-4-1.8-4-4v-4
	c0-2.2,1.8-4,4-4h14V22C55,20.9,54.1,20,53,20z M13,58h-2v-2h2V58z M13,24h-2v-2h2V24z M51,48h2v2h-2V48z M51,52h2v2h-2V52z M51,56
	h2v1c0,0.6-0.4,1-1,1h-1V56z M47,56h2v2h-2V56z M43,56h2v2h-2V56z M39,56h2v2h-2V56z M17,58h-2v-2h2V58z M17,24h-2v-2h2V24z M21,58
	h-2v-2h2V58z M21,24h-2v-2h2V24z M25,58h-2v-2h2V58z M25,24h-2v-2h2V24z M29,58h-2v-2h2V58z M29,24h-2v-2h2V24z M33,58h-2v-2h2V58z
	 M33,24h-2v-2h2V24z M37,58h-2v-2h2V58z M37,24h-2v-2h2V24z M41,24h-2v-2h2V24z M45,24h-2v-2h2V24z M49,24h-2v-2h2V24z M53,32h-2v-2
	h2V32z M53,28h-2v-2h2V28z M53,24h-2v-2h1c0.6,0,1,0.4,1,1V24z"/>
<path fill="#22C0FF" d="M39,38v4c0,1.1,0.9,2,2,2h14v-8H41C39.9,36,39,36.9,39,38z M43,42h-2v-4h2V42z"/>
<path fill="#FCC03D" d="M18.9,12H15v3.9C17,15.5,18.5,14,18.9,12z"/>
<path fill="#FFFFFF" d="M46,17.9c-3.1-0.4-5.5-2.9-5.9-5.9H20.9c-0.4,3.1-2.9,5.5-5.9,5.9V18L46,17.9L46,17.9z"/>
<path fill="#FCC03D" d="M46,15.9V12h-3.9C42.5,14,44,15.5,46,15.9z"/>
<rect x="41" y="38" fill="#FFFFFF" width="2" height="4"/>
<rect x="31" y="22" fill="#FFFFFF" width="2" height="2"/>
<rect x="51" y="30" fill="#FFFFFF" width="2" height="2"/>
<rect x="19" y="22" fill="#FFFFFF" width="2" height="2"/>
<rect x="47" y="22" fill="#FFFFFF" width="2" height="2"/>
<rect x="23" y="22" fill="#FFFFFF" width="2" height="2"/>
<rect x="43" y="22" fill="#FFFFFF" width="2" height="2"/>
<rect x="51" y="26" fill="#FFFFFF" width="2" height="2"/>
<path fill="#FFFFFF" d="M52,22h-1v2h2v-1C53,22.4,52.6,22,52,22z"/>
<rect x="35" y="22" fill="#FFFFFF" width="2" height="2"/>
<rect x="15" y="22" fill="#FFFFFF" width="2" height="2"/>
<rect x="39" y="22" fill="#FFFFFF" width="2" height="2"/>
<rect x="11" y="22" fill="#FFFFFF" width="2" height="2"/>
<rect x="27" y="22" fill="#FFFFFF" width="2" height="2"/>
<rect x="15" y="56" fill="#FFFFFF" width="2" height="2"/>
<rect x="19" y="56" fill="#FFFFFF" width="2" height="2"/>
<rect x="23" y="56" fill="#FFFFFF" width="2" height="2"/>
<rect x="31" y="56" fill="#FFFFFF" width="2" height="2"/>
<rect x="27" y="56" fill="#FFFFFF" width="2" height="2"/>
<rect x="35" y="56" fill="#FFFFFF" width="2" height="2"/>
<rect x="51" y="48" fill="#FFFFFF" width="2" height="2"/>
<path fill="#FFFFFF" d="M53,57v-1h-2v2h1C52.6,58,53,57.6,53,57z"/>
<rect x="11" y="56" fill="#FFFFFF" width="2" height="2"/>
<rect x="51" y="52" fill="#FFFFFF" width="2" height="2"/>
<rect x="47" y="56" fill="#FFFFFF" width="2" height="2"/>
<rect x="39" y="56" fill="#FFFFFF" width="2" height="2"/>
<rect x="43" y="56" fill="#FFFFFF" width="2" height="2"/>
<path d="M53,18h-5v-7c0-0.6-0.4-1-1-1H14c-0.6,0-1,0.4-1,1v7h-2c-2.2,0-4,1.8-4,4v36c0,2.2,1.8,4,4,4h42c2.2,0,4-1.8,4-4V22
	C57,19.8,55.2,18,53,18z M20.9,12h19.2c0.4,3.1,2.9,5.5,5.9,5.9V18H15v-0.1C18.1,17.5,20.5,15.1,20.9,12z M46,15.9
	c-2-0.4-3.5-1.9-3.9-3.9H46V15.9z M18.9,12c-0.4,2-1.9,3.5-3.9,3.9V12H18.9z M53,60H11c-1.1,0-2-0.9-2-2V22c0-1.1,0.9-2,2-2h42
	c1.1,0,2,0.9,2,2v12H41c-2.2,0-4,1.8-4,4v4c0,2.2,1.8,4,4,4h14v12C55,59.1,54.1,60,53,60z M55,36v8H41c-1.1,0-2-0.9-2-2v-4
	c0-1.1,0.9-2,2-2H55z"/>
<rect x="41" y="38" width="2" height="4"/>
<rect x="27" y="22" width="2" height="2"/>
<rect x="23" y="22" width="2" height="2"/>
<rect x="19" y="22" width="2" height="2"/>
<rect x="31" y="22" width="2" height="2"/>
<rect x="51" y="30" width="2" height="2"/>
<rect x="43" y="22" width="2" height="2"/>
<rect x="47" y="22" width="2" height="2"/>
<rect x="39" y="22" width="2" height="2"/>
<rect x="51" y="26" width="2" height="2"/>
<rect x="11" y="22" width="2" height="2"/>
<rect x="35" y="22" width="2" height="2"/>
<path d="M53,23c0-0.6-0.4-1-1-1h-1v2h2V23z"/>
<rect x="15" y="22" width="2" height="2"/>
<rect x="43" y="56" width="2" height="2"/>
<rect x="31" y="56" width="2" height="2"/>
<rect x="35" y="56" width="2" height="2"/>
<rect x="27" y="56" width="2" height="2"/>
<rect x="19" y="56" width="2" height="2"/>
<rect x="11" y="56" width="2" height="2"/>
<rect x="23" y="56" width="2" height="2"/>
<rect x="51" y="52" width="2" height="2"/>
<rect x="51" y="48" width="2" height="2"/>
<rect x="47" y="56" width="2" height="2"/>
<rect x="39" y="56" width="2" height="2"/>
<path d="M51,58h1c0.6,0,1-0.4,1-1v-1h-2V58z"/>
<rect x="15" y="56" width="2" height="2"/>
<path d="M15,9h34v7h2V8c0-0.6-0.4-1-1-1H15V9z"/>
<path d="M54,14V5c0-0.6-0.4-1-1-1H17v2h35v8H54z"/>
</svg>
