<?xml  version="1.0" encoding="UTF-8" standalone="no"?> <svg id="Layer_1" data-name="Layer 1" xmlns="http://www.w3.org/2000/svg" viewBox="0 0 128 128"><path d="M101.05864,112.4543,94.82836,48.97178a3.39552,3.39552,0,0,0-3.37929-3.06387h0a3.39551,3.39551,0,0,0-3.38563,3.65443l3.45473,45.17411a21.99063,21.99063,0,0,0-15.14958,15.32292H51.63141A21.99063,21.99063,0,0,0,36.48183,94.73645l3.45473-45.17411a3.39551,3.39551,0,0,0-3.38563-3.65443h0a3.39552,3.39552,0,0,0-3.37929,3.06387L26.94136,112.4543a5.17227,5.17227,0,0,0,5.2705,5.74312H95.796A5.16639,5.16639,0,0,0,101.05864,112.4543Z"/><path d="M64.00145,99.97277a7.32894,7.32894,0,1,1,7.833-7.46082A7.56558,7.56558,0,0,1,64.00145,99.97277Z"/><path d="M64.00137,76.60125A12.72464,12.72464,0,1,1,76.371,63.38975,12.54552,12.54552,0,0,1,64.00137,76.60125Z"/><path d="M116.8464,9.80258H11.1536a9.45373,9.45373,0,0,0-9.45373,9.45373V59.0092a3.93906,3.93906,0,0,0,3.93905,3.93906H21.10065a3.939,3.939,0,0,0,3.92027-3.55488h0a3.939,3.939,0,0,0-3.92027-4.32323H9.578V43.99353a5.19114,5.19114,0,0,1,5.17592-5.17592h98.49215a5.19118,5.19118,0,0,1,5.176,5.176V55.07015H106.89935a3.939,3.939,0,0,0-3.92027,4.32323h0a3.939,3.939,0,0,0,3.92027,3.55488h15.46173a3.93906,3.93906,0,0,0,3.939-3.93906V19.25631A9.45373,9.45373,0,0,0,116.8464,9.80258Zm-33.77353,21.2a6.69639,6.69639,0,1,1,6.69639-6.69639A6.69583,6.69583,0,0,1,83.07287,31.00254Zm22.28719,0a6.69639,6.69639,0,1,1,6.69639-6.69639A6.69582,6.69582,0,0,1,105.36006,31.00254Z"/></svg>